<svg width="18" height="9" viewBox="0 0 18 9" fill="none" xmlns="http://www.w3.org/2000/svg">
<path d="M3.41016 4.07812H5.08594V8.4375H3.41016V4.07812ZM4.19531 1.6582C3.43359 1.6582 2.77148 2 2.20898 2.68359C1.86914 3.09375 1.69922 3.70117 1.69922 4.50586V8.4375H0V5.49609C0 4.11328 0.0273438 3.42188 0.0820312 3.42188C0.0859375 3.27344 0.1875 2.94922 0.386719 2.44922C0.589844 2.01562 0.867188 1.61914 1.21875 1.25977C1.66406 0.830078 2.07031 0.542969 2.4375 0.398438C3 0.132813 3.60352 0 4.24805 0C4.89648 0 5.50195 0.132813 6.06445 0.398438C6.43164 0.542969 6.83594 0.830078 7.27734 1.25977C7.62891 1.61914 7.90625 2.01562 8.10938 2.44922C8.30859 2.94922 8.41211 3.27344 8.41992 3.42188C8.47461 3.42188 8.50195 4.11328 8.50195 5.49609V8.4375H6.79688V4.50586C6.79688 3.70117 6.62891 3.09375 6.29297 2.68359C5.73047 2 5.06641 1.6582 4.30078 1.6582H4.19531ZM9.38672 0H14.0859C15.7891 0 16.9707 0.744141 17.6309 2.23242C17.791 2.64648 17.8711 3.0918 17.8711 3.56836C17.8711 4.56055 17.4844 5.42773 16.7109 6.16992C16.2344 6.5918 15.6504 6.87695 14.959 7.02539C14.7285 7.06055 14.459 7.07812 14.1504 7.07812L11.0801 7.11328V8.4375H9.375V5.44336H14.0156C14.6211 5.44336 15.0645 5.33008 15.3457 5.10352C15.7051 4.87305 15.9629 4.50195 16.1191 3.99023C16.1504 3.8418 16.166 3.72266 16.166 3.63281V3.45703C16.166 3.01562 15.9766 2.58594 15.5977 2.16797C15.2031 1.82031 14.7656 1.64648 14.2852 1.64648H9.38672V0Z" fill="url(#paint0_linear_2855_420)"/>
<defs>
<linearGradient id="paint0_linear_2855_420" x1="9.5" y1="-2.67969" x2="9.5" y2="11.3203" gradientUnits="userSpaceOnUse">
<stop stop-color="#55A7F5"/>
<stop offset="1" stop-color="#9055F5"/>
</linearGradient>
</defs>
</svg>
