<svg width="48" height="48" viewBox="0 0 48 48" fill="none" xmlns="http://www.w3.org/2000/svg">
<path d="M44.4567 0H3.54333C2.60358 0 1.70232 0.373315 1.03782 1.03782C0.373315 1.70232 0 2.60358 0 3.54333V44.4567C0 45.3964 0.373315 46.2977 1.03782 46.9622C1.70232 47.6267 2.60358 48 3.54333 48H44.4567C45.3964 48 46.2977 47.6267 46.9622 46.9622C47.6267 46.2977 48 45.3964 48 44.4567V3.54333C48 2.60358 47.6267 1.70232 46.9622 1.03782C46.2977 0.373315 45.3964 0 44.4567 0ZM14.3067 37.2817C14.3067 39.2745 12.6912 40.89 10.6983 40.89C8.70551 40.89 7.09 39.2745 7.09 37.2817V21.575C7.09 19.5822 8.70551 17.9667 10.6983 17.9667C12.6912 17.9667 14.3067 19.5822 14.3067 21.575V37.2817ZM10.6933 14.79C9.87473 14.7854 9.07583 14.5384 8.39747 14.0802C7.71911 13.622 7.19168 12.9731 6.88175 12.2154C6.57183 11.4577 6.4933 10.6252 6.65606 9.82291C6.81883 9.02063 7.2156 8.28455 7.79631 7.70756C8.37702 7.13057 9.11563 6.73853 9.91893 6.58092C10.7222 6.42331 11.5542 6.50719 12.3099 6.82197C13.0656 7.13675 13.7111 7.66833 14.1649 8.34962C14.6188 9.03092 14.8606 9.83138 14.86 10.65C14.8677 11.1981 14.765 11.7421 14.558 12.2496C14.351 12.7571 14.044 13.2178 13.6551 13.6041C13.2663 13.9905 12.8037 14.2946 12.2948 14.4983C11.786 14.702 11.2413 14.8012 10.6933 14.79ZM40.9075 37.3038C40.907 39.2956 39.2922 40.91 37.3004 40.91C35.3083 40.91 33.6933 39.2951 33.6933 37.3029V28.3867C33.6933 24.6933 32.1233 23.5533 30.0967 23.5533C27.9567 23.5533 25.8567 25.1667 25.8567 28.48V37.3017C25.8567 39.2945 24.2412 40.91 22.2483 40.91C20.2555 40.91 18.64 39.2945 18.64 37.3017V21.4533C18.64 19.5369 20.1936 17.9833 22.11 17.9833H23.9917C24.8689 17.9833 25.58 18.6945 25.58 19.5717V21.1024C25.58 21.1342 25.6058 21.16 25.6376 21.16C25.6595 21.16 25.6791 21.1483 25.689 21.1288C26.4059 19.7148 28.8373 17.34 32.5333 17.34C36.56 17.34 40.91 19.73 40.91 26.73L40.9075 37.3038Z" fill="url(#paint0_linear_17_231)"/>
<defs>
<linearGradient id="paint0_linear_17_231" x1="24" y1="0" x2="24" y2="48" gradientUnits="userSpaceOnUse">
<stop stop-color="#7DBEFF"/>
<stop offset="1" stop-color="#0A65C0"/>
</linearGradient>
</defs>
</svg>
