<svg width="250" height="250" viewBox="0 0 250 250" fill="none" xmlns="http://www.w3.org/2000/svg">
<rect width="250" height="250" rx="60" fill="#7A7A7A" fill-opacity="0.51"/>
<path d="M125 59C97.3875 59 75 81.3315 75 108.875C75 119.721 78.5646 129.673 84.4896 137.823C84.5958 138.019 84.6125 138.237 84.7333 138.424L118.067 188.299C119.613 190.612 122.217 192 125 192C127.783 192 130.387 190.612 131.933 188.299L165.267 138.424C165.39 138.237 165.404 138.019 165.51 137.823C171.435 129.673 175 119.721 175 108.875C175 81.3315 152.612 59 125 59ZM125 125.5C115.796 125.5 108.333 118.056 108.333 108.875C108.333 99.6938 115.796 92.25 125 92.25C134.204 92.25 141.667 99.6938 141.667 108.875C141.667 118.056 134.204 125.5 125 125.5Z" fill="white"/>
</svg>
