<svg width="20" height="18" viewBox="0 0 20 18" fill="none" xmlns="http://www.w3.org/2000/svg">
<path d="M2 3H18M14 13H11M6 9L8 11L6 13M1 13.8002V4.2002C1 3.08009 1 2.51962 1.21799 2.0918C1.40973 1.71547 1.71547 1.40973 2.0918 1.21799C2.51962 1 3.08009 1 4.2002 1H15.8002C16.9203 1 17.4796 1 17.9074 1.21799C18.2837 1.40973 18.5905 1.71547 18.7822 2.0918C19 2.5192 19 3.07899 19 4.19691V13.8031C19 14.921 19 15.48 18.7822 15.9074C18.5905 16.2837 18.2837 16.5905 17.9074 16.7822C17.48 17 16.921 17 15.8031 17L4.19694 17C3.079 17 2.51921 17 2.0918 16.7822C1.71547 16.5905 1.40973 16.2837 1.21799 15.9074C1 15.4796 1 14.9203 1 13.8002Z" stroke="url(#paint0_linear_30789_31162)" stroke-width="2" stroke-linecap="round" stroke-linejoin="round"/>
<defs>
<linearGradient id="paint0_linear_30789_31162" x1="10" y1="1" x2="10" y2="17" gradientUnits="userSpaceOnUse">
<stop stop-color="white"/>
<stop offset="1" stop-color="#999999"/>
</linearGradient>
</defs>
</svg>
