<svg width="20" height="20" viewBox="0 0 20 20" fill="none" xmlns="http://www.w3.org/2000/svg">
<path d="M7 4.00018H7.33687C7.58146 4.00018 7.70385 4.00018 7.81893 4.02781C7.92097 4.05231 8.01893 4.09282 8.1084 4.14764C8.20928 4.20947 8.29591 4.29609 8.46875 4.46893L11.5315 7.53167C11.7044 7.70462 11.7904 7.79062 11.8523 7.89154C11.9071 7.98101 11.9482 8.07881 11.9727 8.18085C12 8.29476 12 8.41571 12 8.65534V16.0002M7 4.00018H2.59961C2.03956 4.00018 1.75981 4.00018 1.5459 4.10918C1.35774 4.20505 1.20487 4.35792 1.10899 4.54608C1 4.75999 1 5.04023 1 5.60028V17.4003C1 17.9603 1 18.24 1.10899 18.4539C1.20487 18.642 1.35774 18.7954 1.5459 18.8913C1.7596 19.0002 2.03902 19.0002 2.598 19.0002L10.4011 19.0002C10.96 19.0002 11.2405 19.0002 11.4542 18.8913C11.6423 18.7954 11.7948 18.6423 11.8906 18.4541C11.9996 18.2402 12 17.9601 12 17.4V16.0002M7 4.00018V7.40018C7 7.96024 7 8.24007 7.10899 8.45398C7.20487 8.64214 7.35774 8.79542 7.5459 8.8913C7.7596 9.00018 8.03901 9.00018 8.59797 9.00018H11.9996M8 4.00028V2.60028C8 2.04023 8 1.75999 8.10899 1.54608C8.20487 1.35792 8.35774 1.20505 8.5459 1.10918C8.75981 1.00018 9.03956 1.00018 9.59961 1.00018H14M14 1.00018H14.3369C14.5815 1.00018 14.7038 1.00018 14.8189 1.02781C14.921 1.05231 15.0189 1.09282 15.1084 1.14764C15.2093 1.20946 15.2959 1.2961 15.4688 1.46893L18.5315 4.53167C18.7044 4.70463 18.7904 4.79062 18.8523 4.89154C18.9071 4.98101 18.9482 5.07881 18.9727 5.18085C19 5.29476 19 5.4157 19 5.65534V14.4C19 14.9601 18.9996 15.2402 18.8906 15.4541C18.7948 15.6423 18.6429 15.7954 18.4548 15.8913C18.2411 16.0002 17.961 16.0002 17.402 16.0002H12M14 1.00018V4.40018C14 4.96024 14 5.24007 14.109 5.45398C14.2049 5.64214 14.3577 5.79542 14.5459 5.8913C14.7596 6.00018 15.039 6.00018 15.598 6.00018H18.9996" stroke="url(#paint0_linear_30789_31376)" stroke-width="2" stroke-linecap="round" stroke-linejoin="round"/>
<defs>
<linearGradient id="paint0_linear_30789_31376" x1="10" y1="1.00018" x2="10" y2="19.0002" gradientUnits="userSpaceOnUse">
<stop stop-color="white"/>
<stop offset="1" stop-color="#999999"/>
</linearGradient>
</defs>
</svg>
