<svg width="250" height="250" viewBox="0 0 250 250" fill="none" xmlns="http://www.w3.org/2000/svg">
<rect width="250" height="250" rx="60" fill="#7A7A7A" fill-opacity="0.51"/>
<path d="M174.742 97.1744C174.291 94.9037 173.284 92.8258 171.878 91.1092C171.582 90.7352 171.272 90.4002 170.936 90.0652C168.445 87.5617 164.949 86 161.129 86H88.8713C85.0516 86 81.5676 87.5617 79.0647 90.0652C78.7297 90.4002 78.4199 90.7352 78.1227 91.1092C76.7158 92.8256 75.709 94.9037 75.2707 97.1744C75.0906 98.0508 75 98.9565 75 99.8721V150.621C75 152.568 75.4129 154.439 76.1492 156.129C76.8322 157.743 77.8393 159.202 79.0645 160.426C79.375 160.736 79.6834 161.021 80.0199 161.304C82.4195 163.291 85.517 164.492 88.8713 164.492H161.129C164.484 164.492 167.595 163.291 169.981 161.292C170.317 161.021 170.627 160.736 170.936 160.426C172.161 159.202 173.168 157.743 173.865 156.129V156.117C174.601 154.427 175 152.568 175 150.621V99.8721C175 98.9565 174.911 98.0508 174.742 97.1744ZM84.0838 95.0838C85.3231 93.8459 86.9873 93.0965 88.8713 93.0965H161.129C163.013 93.0965 164.692 93.8459 165.916 95.0838C166.136 95.3043 166.342 95.55 166.524 95.7942L128.652 128.801C127.607 129.716 126.317 130.169 125 130.169C123.697 130.169 122.407 129.716 121.349 128.801L83.4906 95.7801C83.6582 95.536 83.8647 95.3043 84.0838 95.0838ZM82.0965 150.621V103.124L109.504 127.033L82.1104 150.917C82.0965 150.826 82.0965 150.724 82.0965 150.621ZM161.129 157.394H88.8713C87.6446 157.394 86.4967 157.071 85.517 156.505L114.419 131.317L117.117 133.665C119.375 135.627 122.201 136.62 125 136.62C127.814 136.62 130.639 135.627 132.897 133.665L135.594 131.317L164.485 156.505C163.503 157.071 162.356 157.394 161.129 157.394ZM167.904 150.621C167.904 150.724 167.904 150.826 167.89 150.917L140.497 127.047L167.904 103.136V150.621Z" fill="white"/>
</svg>
