<svg width="110" height="110" viewBox="0 0 110 110" fill="none" xmlns="http://www.w3.org/2000/svg">
<path d="M55 73.75L73.75 55M73.75 55L55 36.25M73.75 55H5M5 25.3001V25.0013C5 18.0006 5 14.4976 6.36244 11.8238C7.56081 9.47169 9.47169 7.56081 11.8238 6.36244C14.4976 5 18.0006 5 25.0013 5H85.0012C92.0019 5 95.4975 5 98.1713 6.36244C100.523 7.56081 102.441 9.47169 103.639 11.8238C105 14.495 105 17.9937 105 24.9807V85.0225C105 92.0094 105 95.5031 103.639 98.1744C102.441 100.526 100.523 102.441 98.1713 103.639C95.5 105 92.0063 105 85.0194 105H24.9807C17.9937 105 14.495 105 11.8238 103.639C9.47169 102.441 7.56081 100.524 6.36244 98.1725C5 95.4988 5 92.0006 5 85V84.6875" stroke="white" stroke-width="10" stroke-linecap="round" stroke-linejoin="round"/>
</svg>
