<svg width="100" height="98" viewBox="0 0 100 98" fill="none" xmlns="http://www.w3.org/2000/svg">
<path d="M49.9715 0.00408146H50.3495C59.4619 0.00408146 67.9889 2.50602 75.2926 6.86094L75.0691 6.73441C82.6735 11.1995 88.8311 17.383 93.1515 24.7826L93.2775 25.0194C97.5045 32.2395 100 40.9207 100 50.1857C100 72.2501 85.8438 91.0003 66.1559 97.7674L65.8023 97.8735C65.5462 97.9551 65.2536 98 64.9529 98C64.2944 98 63.6848 97.7796 63.193 97.4123L63.2011 97.4164C62.6809 96.947 62.3557 96.2695 62.3557 95.5144C62.3557 95.494 62.3557 95.4736 62.3557 95.4572V95.4613C62.3557 95.3307 62.3666 93.6628 62.3882 90.4575C62.4099 87.2522 62.4207 84.3217 62.4207 81.666C62.4492 81.3599 62.4655 81.0089 62.4655 80.6497C62.4655 77.4172 61.1527 74.4949 59.0351 72.3847C61.5469 72.1358 63.8148 71.7195 66.0177 71.1399L65.7088 71.2093C68.0377 70.5562 70.0699 69.6869 71.9558 68.589L71.8298 68.6584C73.8945 67.5156 75.6422 66.0626 77.081 64.3402L77.1053 64.3116C78.6173 62.3688 79.8 60.0832 80.5194 57.5976L80.556 57.4548C81.4055 54.6671 81.8932 51.4632 81.8932 48.1449C81.8932 47.9613 81.8932 47.7735 81.8891 47.5899V47.6184C81.8891 47.5286 81.8932 47.4266 81.8932 47.3246C81.8932 42.2309 79.9342 37.5984 76.7355 34.1414L76.7477 34.1537C77.4305 32.3578 77.8247 30.2845 77.8247 28.1172C77.8247 25.4683 77.2354 22.9623 76.1827 20.7134L76.2274 20.8195C75.76 20.7297 75.2276 20.6767 74.6789 20.6767C73.3214 20.6767 72.0411 20.995 70.9031 21.5583L70.9519 21.5379C68.6433 22.395 66.668 23.3664 64.8065 24.501L64.961 24.4112L62.4858 25.9785C58.7384 24.901 54.4342 24.2806 49.9878 24.2806C45.5414 24.2806 41.2372 24.901 37.1566 26.0601L37.4858 25.9785C36.7921 25.4996 35.8695 24.9105 34.7179 24.2112C33.2019 23.3378 31.4095 22.4929 29.548 21.7828L29.2798 21.693C28.0889 21.0644 26.6786 20.6971 25.1788 20.6971C24.6748 20.6971 24.179 20.7379 23.6994 20.8195L23.7522 20.8114C22.7443 22.9501 22.1549 25.4602 22.1549 28.109C22.1549 30.2763 22.5492 32.3538 23.2726 34.268L23.232 34.1496C20.0415 37.5944 18.0865 42.2268 18.0865 47.3205C18.0865 47.4225 18.0865 47.5286 18.0906 47.6307V47.6143C18.0865 47.7735 18.0865 47.9572 18.0865 48.1449C18.0865 51.4468 18.5742 54.6385 19.4846 57.6425L19.4237 57.4099C20.1918 60.0342 21.3583 62.3158 22.8784 64.3198L22.8418 64.2667C24.2806 66.0422 26.0202 67.5033 27.9914 68.6012L28.0808 68.6461C29.8366 69.6747 31.8729 70.544 34.0148 71.1521L34.2018 71.197C36.0958 71.7072 38.3637 72.1235 40.6844 72.3562L40.8714 72.3725C39.1197 74.1194 37.9532 76.454 37.6849 79.0579L37.6809 79.1069C36.8395 79.5191 35.86 79.8538 34.8399 80.0701L34.7545 80.0865C33.714 80.2946 32.5232 80.413 31.2998 80.413C31.2104 80.413 31.121 80.413 31.0315 80.413H31.0437C29.4424 80.3803 27.9711 79.8579 26.7558 78.9926L26.7802 79.009C25.2723 77.9519 24.053 76.5805 23.1995 74.9846L23.171 74.9234C22.3663 73.552 21.3055 72.4174 20.0496 71.548L20.013 71.5236C19.0985 70.8338 18.0215 70.295 16.859 69.9726L16.794 69.9563L15.4934 69.7604C15.3999 69.7522 15.2902 69.7481 15.1805 69.7481C14.6114 69.7481 14.0709 69.8624 13.5791 70.0624L13.6075 70.0501C13.2607 70.2461 13.1523 70.4964 13.2824 70.8011C13.4409 71.1521 13.636 71.4542 13.8717 71.7195L13.8677 71.7154C14.1156 72.0092 14.396 72.2664 14.7009 72.4909L14.7131 72.499L15.1683 72.8255C16.3185 73.4296 17.2655 74.2704 17.9849 75.2867L18.0011 75.3112C18.7774 76.2785 19.4602 77.3723 20.0089 78.5437L20.0496 78.6416L20.6999 80.1436C21.2486 81.7844 22.2443 83.1557 23.545 84.1475L23.5653 84.1638C24.7846 85.1189 26.2559 85.8046 27.8613 86.1148L27.9264 86.1229C29.2676 86.3842 30.8283 86.5474 32.4216 86.5801H32.45C32.6329 86.5882 32.8443 86.5882 33.0597 86.5882C34.1205 86.5882 35.1609 86.5025 36.177 86.3352L36.0673 86.3515L37.563 86.0903C37.563 87.7474 37.5738 89.6765 37.5955 91.8778C37.6172 94.0791 37.628 95.2668 37.628 95.4409V95.4981C37.628 96.2531 37.3029 96.9307 36.7826 97.4C36.299 97.7633 35.6893 97.9837 35.0268 97.9837C34.722 97.9837 34.4294 97.9388 34.157 97.8531L34.1774 97.8572C14.144 90.9636 0 72.2133 0 50.1449C0 40.8881 2.4874 32.215 6.83222 24.7622L6.70216 24.999C11.1486 17.3625 17.3061 11.1791 24.6748 6.84053L24.9106 6.71401C31.9785 2.49377 40.4975 0 49.5936 0H49.9919H49.9715V0.00408146ZM18.9197 72.1072C19.0497 71.8025 18.898 71.5412 18.4645 71.3236C18.0309 71.193 17.7491 71.2365 17.6191 71.4542C17.489 71.7589 17.6408 72.0201 18.0743 72.2378C18.4645 72.499 18.7463 72.4555 18.9197 72.1072ZM20.9397 74.3316C21.2432 74.1139 21.1998 73.7656 20.8096 73.2867C20.3761 72.8949 20.0293 72.8296 19.7691 73.0908C19.4657 73.3085 19.509 73.6568 19.8992 74.1357C20.33 74.5629 20.6769 74.6268 20.9397 74.3275V74.3316ZM22.8906 77.2703C23.2808 76.9655 23.2808 76.5519 22.8906 76.0295C22.5438 75.4635 22.1753 75.3329 21.7851 75.6377C21.3949 75.8553 21.3949 76.2472 21.7851 76.8131C22.1753 77.3791 22.5438 77.5315 22.8906 77.2703ZM25.6218 80.0171C25.9687 79.6688 25.882 79.2552 25.3617 78.7763C24.8415 78.2539 24.408 78.1886 24.0611 78.5804C23.6709 78.9287 23.7577 79.3423 24.3212 79.8212C24.8415 80.3436 25.275 80.4035 25.6218 80.0008V80.0171ZM29.3326 81.6497C29.4627 81.1708 29.1809 80.8225 28.4872 80.6048C27.8369 80.4307 27.4251 80.583 27.2517 81.0619C27.0783 81.5408 27.36 81.8673 28.0971 82.0415C28.7474 82.3054 29.1592 82.1748 29.3326 81.6497ZM33.4336 81.9762C33.4336 81.4102 33.0651 81.1708 32.3281 81.2578C31.6344 81.2578 31.2876 81.4973 31.2876 81.9762C31.2876 82.5421 31.6561 82.7816 32.3931 82.6945C33.0868 82.6972 33.4336 82.4551 33.4336 81.9762ZM37.2094 81.3231C37.1227 80.8443 36.7325 80.6483 36.0389 80.7354C35.3452 80.866 35.0417 81.1925 35.1284 81.715C35.2151 82.2374 35.6053 82.4115 36.299 82.2374C36.9926 82.0633 37.2934 81.7585 37.2094 81.3231Z" fill="white"/>
</svg>
