<svg width="158" height="81" viewBox="0 0 158 81" fill="none" xmlns="http://www.w3.org/2000/svg">
<path d="M0 81V0H19.7017L41.215 56.9036H42.1208L63.6342 0H83.4491V81H68.2765V41.0656L69.1823 27.6033H68.2765L47.669 81H35.7801L15.0593 27.6033H14.1535L15.0593 41.0656V81H0Z" fill="url(#paint0_linear_2847_423)"/>
<path d="M101.839 81V0H130.372C135.581 0 140.261 1.09357 144.413 3.28072C148.564 5.39246 151.848 8.37151 154.263 12.2179C156.754 16.0642 158 20.514 158 25.567C158 30.6201 156.754 35.1075 154.263 39.0293C151.848 42.8757 148.564 45.8925 144.413 48.0796C140.261 50.1913 135.581 51.2472 130.372 51.2472H110.331V36.7668H130.825C133.467 36.7668 135.694 36.2388 137.506 35.183C139.317 34.1271 140.676 32.7696 141.582 31.1103C142.488 29.3757 142.941 27.5279 142.941 25.567C142.941 23.6061 142.488 21.7961 141.582 20.1369C140.676 18.4777 139.317 17.1201 137.506 16.0642C135.694 15.0084 133.467 14.4804 130.825 14.4804H117.125V81H101.839Z" fill="url(#paint1_linear_2847_423)"/>
<defs>
<linearGradient id="paint0_linear_2847_423" x1="79" y1="0" x2="79" y2="81" gradientUnits="userSpaceOnUse">
<stop stop-color="#AED8FF"/>
<stop offset="1" stop-color="#1F59B3"/>
</linearGradient>
<linearGradient id="paint1_linear_2847_423" x1="79" y1="0" x2="79" y2="81" gradientUnits="userSpaceOnUse">
<stop stop-color="#AED8FF"/>
<stop offset="1" stop-color="#1F59B3"/>
</linearGradient>
</defs>
</svg>
