<svg width="250" height="250" viewBox="0 0 250 250" fill="none" xmlns="http://www.w3.org/2000/svg">
<rect width="250" height="250" rx="60" fill="#7A7A7A" fill-opacity="0.51"/>
<path d="M75 88.8889C75 136.447 113.553 175 161.111 175C163.257 175 165.384 174.922 167.49 174.767C169.908 174.59 171.116 174.502 172.217 173.868C173.128 173.344 173.992 172.414 174.449 171.467C175 170.323 175 168.989 175 166.322V150.671C175 148.427 175 147.306 174.631 146.344C174.305 145.495 173.775 144.739 173.088 144.142C172.311 143.467 171.257 143.083 169.149 142.317L151.333 135.838C148.88 134.947 147.654 134.501 146.491 134.576C145.465 134.643 144.477 134.993 143.639 135.588C142.687 136.262 142.016 137.381 140.673 139.619L136.111 147.222C121.389 140.555 109.455 128.605 102.778 113.889L110.381 109.327C112.619 107.984 113.738 107.313 114.412 106.361C115.007 105.523 115.357 104.535 115.424 103.509C115.499 102.346 115.053 101.12 114.162 98.6669L107.683 80.8512C106.917 78.7431 106.533 77.6891 105.858 76.9117C105.261 76.2249 104.505 75.6953 103.656 75.3692C102.694 75 101.573 75 99.3294 75H83.6778C81.0106 75 79.6767 75 78.5333 75.5514C77.5861 76.0081 76.6561 76.8723 76.1317 77.7835C75.4983 78.8837 75.41 80.0923 75.2328 82.5096C75.0783 84.6159 75 86.7432 75 88.8889Z" stroke="white" stroke-width="10" stroke-linecap="round" stroke-linejoin="round"/>
</svg>
